# Blender v2.79 (sub 0) OBJ File: 'Warehouse-1.blend'
# www.blender.org
mtllib Warehouse.mtl
o Shelf_7_Cube.006
v 0.608204 0.050211 1.474167
v 0.608204 2.050211 1.474167
v 0.608204 0.050211 -2.876582
v 0.608204 2.050211 -2.876582
v 0.966343 0.050211 1.474167
v 0.966343 2.050211 1.474167
v 0.966343 0.050211 -2.876582
v 0.966343 2.050211 -2.876582
vt 0.193698 0.525106
vt 0.193698 1.525106
vt 0.372767 1.525106
vt 0.372767 0.525106
vt 0.372767 0.525106
vt 0.372767 1.525106
vt 0.193698 1.525106
vt 0.193698 0.525106
vt 0.193698 0.943529
vt 0.372767 0.943529
vt 0.372767 -1.443529
vt 0.193698 -1.443529
vt 0.372767 0.943529
vt 0.193698 0.943529
vt 0.193698 -1.443529
vt 0.372767 -1.443529
vt 0.556471 0.525106
vt 0.556471 1.525106
vt 2.943529 1.525106
vt 2.943529 0.525106
vt 0.943529 0.525106
vt 0.943529 1.525106
vt -1.443529 1.525106
vt -1.443529 0.525106
vn 0.0000 0.0000 -1.0000
vn 0.0000 0.0000 1.0000
vn 0.0000 -1.0000 0.0000
vn 0.0000 1.0000 0.0000
vn -1.0000 0.0000 0.0000
vn 1.0000 0.0000 0.0000
usemtl ShelfMat
s off
f 3/1/1 4/2/1 8/3/1 7/4/1
f 5/5/2 6/6/2 2/7/2 1/8/2
f 3/9/3 7/10/3 5/11/3 1/12/3
f 8/13/4 4/14/4 2/15/4 6/16/4
usemtl ProductsMat
f 1/17/5 2/18/5 4/19/5 3/20/5
f 7/21/6 8/22/6 6/23/6 5/24/6
o Shelf_6_Cube.005
v 0.184609 0.050211 1.474167
v 0.184609 2.050211 1.474167
v 0.184609 0.050211 -2.876582
v 0.184609 2.050211 -2.876582
v 0.542748 0.050211 1.474167
v 0.542748 2.050211 1.474167
v 0.542748 0.050211 -2.876582
v 0.542748 2.050211 -2.876582
vt 0.193698 0.525106
vt 0.193698 1.525106
vt 0.372767 1.525106
vt 0.372767 0.525106
vt 0.372767 0.525106
vt 0.372767 1.525106
vt 0.193698 1.525106
vt 0.193698 0.525106
vt 0.193698 0.943529
vt 0.372767 0.943529
vt 0.372767 -1.443529
vt 0.193698 -1.443529
vt 0.372767 0.943529
vt 0.193698 0.943529
vt 0.193698 -1.443529
vt 0.372767 -1.443529
vt 0.556471 0.525106
vt 0.556471 1.525106
vt 2.943529 1.525106
vt 2.943529 0.525106
vt 0.943529 0.525106
vt 0.943529 1.525106
vt -1.443529 1.525106
vt -1.443529 0.525106
vn 0.0000 0.0000 -1.0000
vn 0.0000 0.0000 1.0000
vn 0.0000 -1.0000 0.0000
vn 0.0000 1.0000 0.0000
vn -1.0000 0.0000 0.0000
vn 1.0000 0.0000 0.0000
usemtl ShelfMat
s off
f 11/25/7 12/26/7 16/27/7 15/28/7
f 13/29/8 14/30/8 10/31/8 9/32/8
f 11/33/9 15/34/9 13/35/9 9/36/9
f 16/37/10 12/38/10 10/39/10 14/40/10
usemtl ProductsMat
f 9/41/11 10/42/11 12/43/11 11/44/11
f 15/45/12 16/46/12 14/47/12 13/48/12
o Shelf_5_Cube.004
v -1.149715 0.050211 1.887057
v -1.149715 2.050211 1.887057
v -1.149715 0.050211 -2.887057
v -1.149715 2.050211 -2.887057
v -0.791576 0.050211 1.887057
v -0.791576 2.050211 1.887057
v -0.791576 0.050211 -2.887057
v -0.791576 2.050211 -2.887057
vt 0.193698 0.525106
vt 0.193698 1.525106
vt 0.372767 1.525106
vt 0.372767 0.525106
vt 0.372767 0.525106
vt 0.372767 1.525106
vt 0.193698 1.525106
vt 0.193698 0.525106
vt 0.193698 0.943529
vt 0.372767 0.943529
vt 0.372767 -1.443529
vt 0.193698 -1.443529
vt 0.372767 0.943529
vt 0.193698 0.943529
vt 0.193698 -1.443529
vt 0.372767 -1.443529
vt 0.556471 0.525106
vt 0.556471 1.525106
vt 2.943529 1.525106
vt 2.943529 0.525106
vt 0.943529 0.525106
vt 0.943529 1.525106
vt -1.443529 1.525106
vt -1.443529 0.525106
vn 0.0000 0.0000 -1.0000
vn 0.0000 0.0000 1.0000
vn 0.0000 -1.0000 0.0000
vn 0.0000 1.0000 0.0000
vn -1.0000 0.0000 0.0000
vn 1.0000 0.0000 0.0000
usemtl ShelfMat
s off
f 19/49/13 20/50/13 24/51/13 23/52/13
f 21/53/14 22/54/14 18/55/14 17/56/14
f 19/57/15 23/58/15 21/59/15 17/60/15
f 24/61/16 20/62/16 18/63/16 22/64/16
usemtl ProductsMat
f 17/65/17 18/66/17 20/67/17 19/68/17
f 23/69/18 24/70/18 22/71/18 21/72/18
o Shelf_4_Cube.003
v -1.552130 0.050211 1.887057
v -1.552130 2.050211 1.887057
v -1.552130 0.050211 -2.887057
v -1.552130 2.050211 -2.887057
v -1.193992 0.050211 1.887057
v -1.193992 2.050211 1.887057
v -1.193992 0.050211 -2.887057
v -1.193992 2.050211 -2.887057
vt 0.193698 0.525106
vt 0.193698 1.525106
vt 0.372767 1.525106
vt 0.372767 0.525106
vt 0.372767 0.525106
vt 0.372767 1.525106
vt 0.193698 1.525106
vt 0.193698 0.525106
vt 0.193698 0.943529
vt 0.372767 0.943529
vt 0.372767 -1.443529
vt 0.193698 -1.443529
vt 0.372767 0.943529
vt 0.193698 0.943529
vt 0.193698 -1.443529
vt 0.372767 -1.443529
vt 0.556471 0.525106
vt 0.556471 1.525106
vt 2.943529 1.525106
vt 2.943529 0.525106
vt 0.943529 0.525106
vt 0.943529 1.525106
vt -1.443529 1.525106
vt -1.443529 0.525106
vn 0.0000 0.0000 -1.0000
vn 0.0000 0.0000 1.0000
vn 0.0000 -1.0000 0.0000
vn 0.0000 1.0000 0.0000
vn -1.0000 0.0000 0.0000
vn 1.0000 0.0000 0.0000
usemtl ShelfMat
s off
f 27/73/19 28/74/19 32/75/19 31/76/19
f 29/77/20 30/78/20 26/79/20 25/80/20
f 27/81/21 31/82/21 29/83/21 25/84/21
f 32/85/22 28/86/22 26/87/22 30/88/22
usemtl ProductsMat
f 25/89/23 26/90/23 28/91/23 27/92/23
f 31/93/24 32/94/24 30/95/24 29/96/24
o Shelf_3_Cube.002
v -2.886454 0.050211 1.887057
v -2.886454 2.050211 1.887057
v -2.886454 0.050211 -2.887057
v -2.886454 2.050211 -2.887057
v -2.528316 0.050211 1.887057
v -2.528316 2.050211 1.887057
v -2.528316 0.050211 -2.887057
v -2.528316 2.050211 -2.887057
vt 0.193698 0.525106
vt 0.193698 1.525106
vt 0.372767 1.525106
vt 0.372767 0.525106
vt 0.372767 0.525106
vt 0.372767 1.525106
vt 0.193698 1.525106
vt 0.193698 0.525106
vt 0.193698 0.943529
vt 0.372767 0.943529
vt 0.372767 -1.443529
vt 0.193698 -1.443529
vt 0.372767 0.943529
vt 0.193698 0.943529
vt 0.193698 -1.443529
vt 0.372767 -1.443529
vt 0.556471 0.525106
vt 0.556471 1.525106
vt 2.943529 1.525106
vt 2.943529 0.525106
vt 0.943529 0.525106
vt 0.943529 1.525106
vt -1.443529 1.525106
vt -1.443529 0.525106
vn 0.0000 0.0000 -1.0000
vn 0.0000 0.0000 1.0000
vn 0.0000 -1.0000 0.0000
vn 0.0000 1.0000 0.0000
vn -1.0000 0.0000 0.0000
vn 1.0000 0.0000 0.0000
usemtl ShelfMat
s off
f 35/97/25 36/98/25 40/99/25 39/100/25
f 37/101/26 38/102/26 34/103/26 33/104/26
f 35/105/27 39/106/27 37/107/27 33/108/27
f 40/109/28 36/110/28 34/111/28 38/112/28
usemtl ProductsMat
f 33/113/29 34/114/29 36/115/29 35/116/29
f 39/117/30 40/118/30 38/119/30 37/120/30
o Shelf_2_Cube.001
v -3.288870 0.050211 1.887057
v -3.288870 2.050211 1.887057
v -3.288870 0.050211 -2.887057
v -3.288870 2.050211 -2.887057
v -2.930731 0.050211 1.887057
v -2.930731 2.050211 1.887057
v -2.930731 0.050211 -2.887057
v -2.930731 2.050211 -2.887057
vt 0.193698 0.525106
vt 0.193698 1.525106
vt 0.372767 1.525106
vt 0.372767 0.525106
vt 0.372767 0.525106
vt 0.372767 1.525106
vt 0.193698 1.525106
vt 0.193698 0.525106
vt 0.193698 0.943529
vt 0.372767 0.943529
vt 0.372767 -1.443529
vt 0.193698 -1.443529
vt 0.372767 0.943529
vt 0.193698 0.943529
vt 0.193698 -1.443529
vt 0.372767 -1.443529
vt 0.556471 0.525106
vt 0.556471 1.525106
vt 2.943529 1.525106
vt 2.943529 0.525106
vt 0.943529 0.525106
vt 0.943529 1.525106
vt -1.443529 1.525106
vt -1.443529 0.525106
vn 0.0000 0.0000 -1.0000
vn 0.0000 0.0000 1.0000
vn 0.0000 -1.0000 0.0000
vn 0.0000 1.0000 0.0000
vn -1.0000 0.0000 0.0000
vn 1.0000 0.0000 0.0000
usemtl ShelfMat
s off
f 43/121/31 44/122/31 48/123/31 47/124/31
f 45/125/32 46/126/32 42/127/32 41/128/32
f 43/129/33 47/130/33 45/131/33 41/132/33
f 48/133/34 44/134/34 42/135/34 46/136/34
usemtl ProductsMat
f 41/137/35 42/138/35 44/139/35 43/140/35
f 47/141/36 48/142/36 46/143/36 45/144/36
o Shelf_1_Cube
v -4.612604 0.050211 1.887057
v -4.612604 2.050211 1.887057
v -4.612604 0.050211 -2.887057
v -4.612604 2.050211 -2.887057
v -4.254465 0.050211 1.887057
v -4.254465 2.050211 1.887057
v -4.254465 0.050211 -2.887057
v -4.254465 2.050211 -2.887057
vt 0.193698 0.525106
vt 0.193698 1.525106
vt 0.372767 1.525106
vt 0.372767 0.525106
vt 0.372767 0.525106
vt 0.372767 1.525106
vt 0.193698 1.525106
vt 0.193698 0.525106
vt 0.193698 0.943529
vt 0.372767 0.943529
vt 0.372767 -1.443529
vt 0.193698 -1.443529
vt 0.372767 0.943529
vt 0.193698 0.943529
vt 0.193698 -1.443529
vt 0.372767 -1.443529
vt 0.556471 0.525106
vt 0.556471 1.525106
vt 2.943529 1.525106
vt 2.943529 0.525106
vt 0.943529 0.525106
vt 0.943529 1.525106
vt -1.443529 1.525106
vt -1.443529 0.525106
vn 0.0000 0.0000 -1.0000
vn 0.0000 0.0000 1.0000
vn 0.0000 -1.0000 0.0000
vn 0.0000 1.0000 0.0000
vn -1.0000 0.0000 0.0000
vn 1.0000 0.0000 0.0000
usemtl ShelfMat
s off
f 51/145/37 52/146/37 56/147/37 55/148/37
f 53/149/38 54/150/38 50/151/38 49/152/38
f 51/153/39 55/154/39 53/155/39 49/156/39
f 56/157/40 52/158/40 50/159/40 54/160/40
usemtl ProductsMat
f 49/161/41 50/162/41 52/163/41 51/164/41
f 55/165/42 56/166/42 54/167/42 53/168/42
o Building_Plane
v -5.000000 0.000000 5.000000
v 5.000000 0.000000 5.000000
v -5.000000 0.000000 -5.000000
v 5.000000 0.000000 -5.000000
v -5.000000 4.000000 5.000000
v 5.000000 4.000000 5.000000
v -5.000000 4.000000 -5.000000
v 5.000000 4.000000 -5.000000
vt 0.000000 0.000000
vt 5.000000 0.000000
vt 5.000000 5.000000
vt 0.000000 5.000000
vt 0.000000 0.500000
vt 0.000000 2.500000
vt -5.000000 2.500000
vt -5.000000 0.500000
vt 0.000000 0.500000
vt 0.000000 2.500000
vt -5.000000 2.500000
vt -5.000000 0.500000
vt 0.000000 0.500000
vt 0.000000 2.500000
vt 5.000000 2.500000
vt 5.000000 0.500000
vt 0.000000 0.500000
vt 0.000000 2.500000
vt 5.000000 2.500000
vt 5.000000 0.500000
vt 0.000000 0.000000
vt 0.000000 5.000000
vt 5.000000 5.000000
vt 5.000000 0.000000
vn 0.0000 1.0000 0.0000
vn 1.0000 0.0000 0.0000
vn 0.0000 0.0000 1.0000
vn 0.0000 0.0000 -1.0000
vn -1.0000 0.0000 0.0000
vn 0.0000 -1.0000 0.0000
usemtl FloorMat
s off
f 57/169/43 58/170/43 60/171/43 59/172/43
usemtl WallsMat
f 59/173/44 63/174/44 61/175/44 57/176/44
f 60/177/45 64/178/45 63/179/45 59/180/45
f 57/181/46 61/182/46 62/183/46 58/184/46
f 58/185/47 62/186/47 64/187/47 60/188/47
usemtl CeilingMat
f 61/189/48 63/190/48 64/191/48 62/192/48
